<?xml version="1.0" standalone="no"?>
<!DOCTYPE svg PUBLIC "-//W3C//DTD SVG 20010904//EN"
 "http://www.w3.org/TR/2001/REC-SVG-20010904/DTD/svg10.dtd">
<svg version="1.0" xmlns="http://www.w3.org/2000/svg"
 width="150" height="50" viewBox="0 0 245.000000 119.000000"
 preserveAspectRatio="xMidYMid meet">

<g transform="translate(0.000000,119.000000) scale(0.100000,-0.100000)"
fill="#000000" stroke="none">
<path d="M276 945 c-82 -29 -126 -96 -126 -192 1 -121 91 -203 225 -203 45 0
113 28 135 55 10 13 5 11 -18 -6 -44 -31 -119 -34 -152 -4 -30 26 -50 75 -50
120 l0 35 119 0 c72 0 122 4 126 10 4 6 4 28 0 50 -19 115 -140 178 -259 135z
m109 -19 c9 -13 19 -56 22 -95 l6 -71 -63 0 -63 0 5 70 c8 107 55 155 93 96z"/>
<path d="M1185 946 c-16 -7 -39 -24 -50 -36 l-20 -23 31 22 c40 29 65 18 88
-39 18 -46 21 -165 6 -221 -20 -71 -80 -90 -110 -34 -7 14 -15 23 -17 21 -9
-9 31 -58 58 -72 38 -19 97 -18 139 5 40 21 80 89 80 135 0 28 4 25 31 -31 37
-77 89 -112 178 -120 73 -7 119 8 157 50 l29 32 -31 -28 c-40 -36 -99 -45
-143 -22 -35 18 -55 54 -66 123 l-7 42 126 0 126 0 0 37 c0 51 -35 118 -75
143 -43 27 -118 35 -173 21 -55 -15 -113 -73 -131 -131 l-14 -45 -9 45 c-18
103 -119 165 -203 126z m461 -31 c7 -19 14 -62 14 -95 l0 -60 -60 0 c-68 0
-66 -4 -50 94 16 96 67 129 96 61z"/>
<path d="M2324 946 c-49 -22 -74 -61 -74 -118 0 -43 5 -55 33 -82 21 -21 57
-41 102 -56 39 -12 80 -29 93 -36 29 -19 29 -58 0 -78 -29 -20 -16 -21 22 -1
36 19 60 62 60 110 0 66 -24 85 -184 147 -69 27 -86 54 -57 90 13 16 34 24 72
29 l54 6 -45 1 c-25 1 -59 -5 -76 -12z"/>
<path d="M2697 945 c-149 -52 -174 -271 -41 -354 84 -54 194 -54 255 0 l34 29
-40 -26 c-77 -50 -162 -17 -184 71 -22 89 -27 85 114 85 l125 0 0 33 c0 38
-30 105 -56 129 -52 46 -136 59 -207 33z m120 -35 c7 -19 12 -61 12 -92 l1
-58 -61 0 -62 0 6 65 c8 87 29 127 65 123 21 -2 30 -11 39 -38z"/>
<path d="M3054 946 c-66 -29 -97 -104 -71 -169 17 -40 45 -57 150 -93 38 -13
76 -29 83 -35 21 -17 17 -56 -8 -73 -12 -9 -17 -16 -10 -16 7 0 28 15 48 33
28 26 37 42 41 78 4 38 1 50 -21 76 -15 18 -50 40 -83 53 -106 40 -141 59
-148 79 -9 31 11 60 48 65 17 3 43 7 57 9 15 3 9 5 -15 5 -22 1 -54 -5 -71
-12z"/>
<path d="M962 725 l3 -225 30 -30 c17 -16 44 -32 62 -36 l32 -6 4 108 c10 246
12 322 8 318 -3 -2 -10 9 -17 26 -14 33 -67 70 -102 70 l-23 0 3 -225z"/>
<path d="M2034 941 c-23 -10 -64 -57 -64 -74 0 -5 10 2 21 17 16 21 28 26 52
24 40 -4 45 -21 46 -172 l1 -118 34 -34 c24 -24 43 -34 65 -34 l31 0 0 145 c0
154 -8 193 -49 229 -23 21 -104 31 -137 17z"/>
<path d="M3180 946 c0 -2 7 -7 16 -10 8 -3 12 -2 9 4 -6 10 -25 14 -25 6z"/>
<path d="M556 913 c9 -16 42 -65 73 -111 50 -76 54 -85 41 -105 -12 -21 -12
-21 5 -7 16 13 19 12 34 -10 55 -84 123 -129 193 -130 l37 0 -73 113 c-40 61
-75 117 -79 123 -3 6 8 31 25 55 l30 44 -33 -38 -34 -38 -38 45 c-46 56 -102
86 -158 86 l-41 0 18 -27z"/>
<path d="M1820 794 c0 -162 9 -197 59 -227 16 -9 40 -17 54 -17 l26 0 3 148
c3 138 2 149 -19 184 -26 43 -50 58 -92 58 l-31 0 0 -146z"/>
<path d="M2495 920 c10 -11 20 -20 23 -20 3 0 -3 9 -13 20 -10 11 -20 20 -23
20 -3 0 3 -9 13 -20z"/>
<path d="M849 903 c-13 -16 -12 -17 4 -4 9 7 17 15 17 17 0 8 -8 3 -21 -13z"/>
<path d="M2531 844 c0 -11 3 -14 6 -6 3 7 2 16 -1 19 -3 4 -6 -2 -5 -13z"/>
<path d="M2252 670 c0 -14 2 -19 5 -12 2 6 2 18 0 25 -3 6 -5 1 -5 -13z"/>
<path d="M531 664 c0 -11 3 -14 6 -6 3 7 2 16 -1 19 -3 4 -6 -2 -5 -13z"/>
<path d="M639 653 c-13 -16 -12 -17 4 -4 9 7 17 15 17 17 0 8 -8 3 -21 -13z"/>
<path d="M2269 623 c14 -27 59 -63 80 -63 9 1 2 7 -15 14 -17 8 -41 27 -53 42
-14 19 -18 21 -12 7z"/>
<path d="M2990 633 c0 -14 67 -73 83 -73 7 0 -2 9 -19 19 -18 11 -39 30 -48
42 -9 13 -16 18 -16 12z"/>
<path d="M604 608 l-19 -23 23 19 c12 11 22 21 22 23 0 8 -8 2 -26 -19z"/>
<path d="M569 563 c-13 -16 -12 -17 4 -4 16 13 21 21 13 21 -2 0 -10 -8 -17
-17z"/>
<path d="M2388 553 c12 -2 32 -2 45 0 12 2 2 4 -23 4 -25 0 -35 -2 -22 -4z"/>
<path d="M3108 553 c12 -2 32 -2 45 0 12 2 2 4 -23 4 -25 0 -35 -2 -22 -4z"/>
<path d="M1273 273 c13 -3 17 -15 17 -54 0 -27 5 -49 10 -49 6 0 10 22 10 49
0 39 4 51 18 54 9 3 -3 5 -28 5 -25 0 -37 -2 -27 -5z"/>
<path d="M1411 223 c1 -32 4 -48 6 -35 5 28 19 28 33 1 7 -11 14 -18 17 -15 3
3 0 12 -6 20 -10 11 -9 19 1 36 11 18 10 23 -6 36 -37 27 -46 18 -45 -43z m33
41 c28 -11 13 -44 -20 -44 -2 0 -4 11 -4 25 0 27 1 28 24 19z"/>
<path d="M1700 260 c-24 -24 -25 -38 -4 -68 15 -21 58 -30 68 -14 3 5 -8 6
-24 4 -40 -6 -59 28 -35 65 13 20 22 24 43 19 20 -5 23 -4 12 4 -22 15 -38 12
-60 -10z"/>
<path d="M1884 259 c-17 -19 -19 -19 -25 -2 -5 10 -7 -5 -7 -37 0 -30 3 -44 5
-32 l5 24 26 -24 26 -23 -22 32 c-14 19 -18 34 -12 38 10 6 34 45 27 45 -2 0
-12 -9 -23 -21z"/>
<path d="M1980 225 l0 -55 33 1 c30 2 30 2 5 6 -32 5 -39 39 -10 46 16 4 16 5
0 6 -26 2 -22 30 5 41 21 8 21 9 -5 9 -27 1 -28 -1 -28 -54z"/>
<path d="M2111 223 c1 -32 4 -48 6 -35 5 28 19 28 33 1 7 -11 14 -18 17 -15 3
3 0 12 -6 20 -10 11 -9 19 1 36 11 18 10 23 -6 36 -37 27 -46 18 -45 -43z m33
41 c28 -11 13 -44 -20 -44 -2 0 -4 11 -4 25 0 27 1 28 24 19z"/>
<path d="M1561 233 c-22 -60 -24 -70 -11 -50 6 9 18 17 27 17 9 0 22 -8 29
-17 9 -13 8 -2 -3 35 -9 28 -20 52 -23 52 -3 0 -12 -17 -19 -37z m29 -8 c0 -8
-7 -15 -15 -15 -9 0 -12 6 -9 15 4 8 10 15 15 15 5 0 9 -7 9 -15z"/>
</g>
</svg>
